# Tiled2Unity generated file. Do not modify by hand.
# Wavefront file for 'Plataformas_mesh_0015.obj'

# Vertices (Count = 20)
v -14 -5 0
v -15 -5 0
v -15 -4 0
v -14 -4 0
v -13 -4 0
v -14 -4 0
v -14 -3 0
v -13 -3 0
v -9 -4 0
v -10 -4 0
v -10 -3 0
v -9 -3 0
v -8 -3 0
v -9 -3 0
v -9 -2 0
v -8 -2 0
v -7 -2 0
v -8 -2 0
v -8 -1 0
v -7 -1 0

# Texture cooridinates (Count = 4)
vt 0 0
vt 1 0
vt 1 1
vt 0 1

# Normal
vn 0 0 -1

# Mesh description
g Plataformas_mesh_0015

# Faces
f 1/1/1 2/2/1 3/3/1 4/4/1
f 5/1/1 6/2/1 7/3/1 8/4/1
f 9/1/1 10/2/1 11/3/1 12/4/1
f 13/1/1 14/2/1 15/3/1 16/4/1
f 17/1/1 18/2/1 19/3/1 20/4/1

