# Tiled2Unity generated file. Do not modify by hand.
# Wavefront file for 'Plataformas_mesh_0007.obj'

# Vertices (Count = 20)
v -11 -7 0
v -12 -7 0
v -12 -6 0
v -11 -6 0
v -3 -4 0
v -4 -4 0
v -4 -3 0
v -3 -3 0
v -5 -2 0
v -6 -2 0
v -6 -1 0
v -5 -1 0
v 0 -2 0
v -1 -2 0
v -1 -1 0
v 0 -1 0
v -6 -1 0
v -7 -1 0
v -7 0 0
v -6 0 0

# Texture cooridinates (Count = 4)
vt 0 0
vt 1 0
vt 1 1
vt 0 1

# Normal
vn 0 0 -1

# Mesh description
g Plataformas_mesh_0007

# Faces
f 1/1/1 2/2/1 3/3/1 4/4/1
f 5/1/1 6/2/1 7/3/1 8/4/1
f 9/1/1 10/2/1 11/3/1 12/4/1
f 13/1/1 14/2/1 15/3/1 16/4/1
f 17/1/1 18/2/1 19/3/1 20/4/1

