# Tiled2Unity generated file. Do not modify by hand.
# Wavefront file for 'Plataformas_mesh_0011.obj'

# Vertices (Count = 24)
v -15 -5 0
v -16 -5 0
v -16 -4 0
v -15 -4 0
v -14 -4 0
v -15 -4 0
v -15 -3 0
v -14 -3 0
v -13 -3 0
v -14 -3 0
v -14 -2 0
v -13 -2 0
v -12 -2 0
v -13 -2 0
v -13 -1 0
v -12 -1 0
v -3 -2 0
v -4 -2 0
v -4 -1 0
v -3 -1 0
v -11 -1 0
v -12 -1 0
v -12 0 0
v -11 0 0

# Texture cooridinates (Count = 4)
vt 0 0
vt 1 0
vt 1 1
vt 0 1

# Normal
vn 0 0 -1

# Mesh description
g Plataformas_mesh_0011

# Faces
f 1/1/1 2/2/1 3/3/1 4/4/1
f 5/1/1 6/2/1 7/3/1 8/4/1
f 9/1/1 10/2/1 11/3/1 12/4/1
f 13/1/1 14/2/1 15/3/1 16/4/1
f 17/1/1 18/2/1 19/3/1 20/4/1
f 21/1/1 22/2/1 23/3/1 24/4/1

