# Tiled2Unity generated file. Do not modify by hand.
# Wavefront file for 'Plataformas_mesh_0018.obj'

# Vertices (Count = 16)
v -13 -5 0
v -14 -5 0
v -14 -4 0
v -13 -4 0
v -9 -5 0
v -10 -5 0
v -10 -4 0
v -9 -4 0
v -8 -4 0
v -9 -4 0
v -9 -3 0
v -8 -3 0
v -7 -3 0
v -8 -3 0
v -8 -2 0
v -7 -2 0

# Texture cooridinates (Count = 4)
vt 0 0
vt 1 0
vt 1 1
vt 0 1

# Normal
vn 0 0 -1

# Mesh description
g Plataformas_mesh_0018

# Faces
f 1/1/1 2/2/1 3/3/1 4/4/1
f 5/1/1 6/2/1 7/3/1 8/4/1
f 9/1/1 10/2/1 11/3/1 12/4/1
f 13/1/1 14/2/1 15/3/1 16/4/1

